<mxfile host="app.diagrams.net" modified="2024-07-18T07:21:23.452Z" agent="Mozilla/5.0 (Windows NT 10.0; Win64; x64) AppleWebKit/537.36 (KHTML, like Gecko) Chrome/126.0.0.0 Safari/537.36 Edg/126.0.0.0" etag="QLTqEVTZOy5OSNWWmWUn" version="24.7.1" type="github">
  <diagram name="第 1 页" id="Nc3MFnW7DYe8lzxcgFCm">
    <mxGraphModel dx="1339" dy="785" grid="1" gridSize="10" guides="1" tooltips="1" connect="1" arrows="1" fold="1" page="1" pageScale="1" pageWidth="827" pageHeight="1169" math="0" shadow="0">
      <root>
        <mxCell id="0" />
        <mxCell id="1" parent="0" />
        <mxCell id="dD-0ZCfgkTVZ2vpiZr_o-1" value="看护宝小程序" style="shape=umlLifeline;perimeter=lifelinePerimeter;whiteSpace=wrap;html=1;container=1;dropTarget=0;collapsible=0;recursiveResize=0;outlineConnect=0;portConstraint=eastwest;newEdgeStyle={&quot;curved&quot;:0,&quot;rounded&quot;:0};" parent="1" vertex="1">
          <mxGeometry x="260" y="60" width="100" height="380" as="geometry" />
        </mxCell>
        <mxCell id="dD-0ZCfgkTVZ2vpiZr_o-6" value="" style="html=1;points=[[0,0,0,0,5],[0,1,0,0,-5],[1,0,0,0,5],[1,1,0,0,-5]];perimeter=orthogonalPerimeter;outlineConnect=0;targetShapes=umlLifeline;portConstraint=eastwest;newEdgeStyle={&quot;curved&quot;:0,&quot;rounded&quot;:0};" parent="dD-0ZCfgkTVZ2vpiZr_o-1" vertex="1">
          <mxGeometry x="45" y="80" width="10" height="100" as="geometry" />
        </mxCell>
        <mxCell id="dD-0ZCfgkTVZ2vpiZr_o-2" value="看护宝后台" style="shape=umlLifeline;perimeter=lifelinePerimeter;whiteSpace=wrap;html=1;container=1;dropTarget=0;collapsible=0;recursiveResize=0;outlineConnect=0;portConstraint=eastwest;newEdgeStyle={&quot;curved&quot;:0,&quot;rounded&quot;:0};" parent="1" vertex="1">
          <mxGeometry x="420" y="60" width="100" height="380" as="geometry" />
        </mxCell>
        <mxCell id="dD-0ZCfgkTVZ2vpiZr_o-7" value="" style="html=1;points=[[0,0,0,0,5],[0,1,0,0,-5],[1,0,0,0,5],[1,1,0,0,-5]];perimeter=orthogonalPerimeter;outlineConnect=0;targetShapes=umlLifeline;portConstraint=eastwest;newEdgeStyle={&quot;curved&quot;:0,&quot;rounded&quot;:0};" parent="dD-0ZCfgkTVZ2vpiZr_o-2" vertex="1">
          <mxGeometry x="45" y="90" width="10" height="70" as="geometry" />
        </mxCell>
        <mxCell id="dD-0ZCfgkTVZ2vpiZr_o-18" value="" style="html=1;points=[[0,0,0,0,5],[0,1,0,0,-5],[1,0,0,0,5],[1,1,0,0,-5]];perimeter=orthogonalPerimeter;outlineConnect=0;targetShapes=umlLifeline;portConstraint=eastwest;newEdgeStyle={&quot;curved&quot;:0,&quot;rounded&quot;:0};" parent="dD-0ZCfgkTVZ2vpiZr_o-2" vertex="1">
          <mxGeometry x="45" y="210" width="10" height="100" as="geometry" />
        </mxCell>
        <mxCell id="dD-0ZCfgkTVZ2vpiZr_o-23" value="" style="html=1;points=[[0,0,0,0,5],[0,1,0,0,-5],[1,0,0,0,5],[1,1,0,0,-5]];perimeter=orthogonalPerimeter;outlineConnect=0;targetShapes=umlLifeline;portConstraint=eastwest;newEdgeStyle={&quot;curved&quot;:0,&quot;rounded&quot;:0};" parent="dD-0ZCfgkTVZ2vpiZr_o-2" vertex="1">
          <mxGeometry x="50" y="252" width="10" height="40" as="geometry" />
        </mxCell>
        <mxCell id="dD-0ZCfgkTVZ2vpiZr_o-24" value="校验token，并录入绑定关系" style="html=1;align=left;spacingLeft=2;endArrow=block;rounded=0;edgeStyle=orthogonalEdgeStyle;curved=0;rounded=0;" parent="dD-0ZCfgkTVZ2vpiZr_o-2" target="dD-0ZCfgkTVZ2vpiZr_o-23" edge="1">
          <mxGeometry relative="1" as="geometry">
            <mxPoint x="55" y="232" as="sourcePoint" />
            <Array as="points">
              <mxPoint x="85" y="262" />
            </Array>
          </mxGeometry>
        </mxCell>
        <mxCell id="dD-0ZCfgkTVZ2vpiZr_o-4" value="合作方App" style="shape=umlLifeline;perimeter=lifelinePerimeter;whiteSpace=wrap;html=1;container=1;dropTarget=0;collapsible=0;recursiveResize=0;outlineConnect=0;portConstraint=eastwest;newEdgeStyle={&quot;curved&quot;:0,&quot;rounded&quot;:0};" parent="1" vertex="1">
          <mxGeometry x="110" y="60" width="100" height="380" as="geometry" />
        </mxCell>
        <mxCell id="dD-0ZCfgkTVZ2vpiZr_o-15" value="" style="html=1;points=[[0,0,0,0,5],[0,1,0,0,-5],[1,0,0,0,5],[1,1,0,0,-5]];perimeter=orthogonalPerimeter;outlineConnect=0;targetShapes=umlLifeline;portConstraint=eastwest;newEdgeStyle={&quot;curved&quot;:0,&quot;rounded&quot;:0};" parent="dD-0ZCfgkTVZ2vpiZr_o-4" vertex="1">
          <mxGeometry x="45" y="70" width="10" height="260" as="geometry" />
        </mxCell>
        <mxCell id="dD-0ZCfgkTVZ2vpiZr_o-8" value="向后台请求授权token" style="html=1;verticalAlign=bottom;startArrow=oval;startFill=1;endArrow=block;startSize=8;curved=0;rounded=0;entryX=0;entryY=0;entryDx=0;entryDy=5;entryPerimeter=0;" parent="1" source="dD-0ZCfgkTVZ2vpiZr_o-6" target="dD-0ZCfgkTVZ2vpiZr_o-7" edge="1">
          <mxGeometry width="60" relative="1" as="geometry">
            <mxPoint x="550" y="470" as="sourcePoint" />
            <mxPoint x="610" y="470" as="targetPoint" />
          </mxGeometry>
        </mxCell>
        <mxCell id="dD-0ZCfgkTVZ2vpiZr_o-10" value="返回授权token" style="html=1;verticalAlign=bottom;endArrow=open;dashed=1;endSize=8;curved=0;rounded=0;exitX=0;exitY=1;exitDx=0;exitDy=-5;exitPerimeter=0;" parent="1" source="dD-0ZCfgkTVZ2vpiZr_o-7" target="dD-0ZCfgkTVZ2vpiZr_o-6" edge="1">
          <mxGeometry relative="1" as="geometry">
            <mxPoint x="460" y="200" as="sourcePoint" />
            <mxPoint x="380" y="200" as="targetPoint" />
          </mxGeometry>
        </mxCell>
        <mxCell id="dD-0ZCfgkTVZ2vpiZr_o-17" value="App发起绑定" style="html=1;verticalAlign=bottom;startArrow=oval;startFill=1;endArrow=block;startSize=8;curved=0;rounded=0;entryX=0;entryY=0;entryDx=0;entryDy=5;entryPerimeter=0;" parent="1" target="dD-0ZCfgkTVZ2vpiZr_o-15" edge="1">
          <mxGeometry width="60" relative="1" as="geometry">
            <mxPoint x="50" y="135" as="sourcePoint" />
            <mxPoint x="950" y="320" as="targetPoint" />
          </mxGeometry>
        </mxCell>
        <mxCell id="dD-0ZCfgkTVZ2vpiZr_o-22" value="发起设备绑定请求" style="html=1;verticalAlign=bottom;endArrow=block;curved=0;rounded=0;entryX=1;entryY=0;entryDx=0;entryDy=5;entryPerimeter=0;" parent="1" source="dD-0ZCfgkTVZ2vpiZr_o-15" target="dD-0ZCfgkTVZ2vpiZr_o-18" edge="1">
          <mxGeometry width="80" relative="1" as="geometry">
            <mxPoint x="740" y="380" as="sourcePoint" />
            <mxPoint x="530" y="390" as="targetPoint" />
          </mxGeometry>
        </mxCell>
        <mxCell id="dD-0ZCfgkTVZ2vpiZr_o-25" value="完成绑定" style="html=1;verticalAlign=bottom;endArrow=open;dashed=1;endSize=8;curved=0;rounded=0;exitX=0;exitY=1;exitDx=0;exitDy=-5;exitPerimeter=0;" parent="1" source="dD-0ZCfgkTVZ2vpiZr_o-18" target="dD-0ZCfgkTVZ2vpiZr_o-15" edge="1">
          <mxGeometry relative="1" as="geometry">
            <mxPoint x="600" y="450" as="sourcePoint" />
            <mxPoint x="520" y="450" as="targetPoint" />
          </mxGeometry>
        </mxCell>
        <mxCell id="_TqjOkzFFTkMrYYL6Ksg-1" value="跳转小程序" style="html=1;verticalAlign=bottom;endArrow=block;curved=0;rounded=0;entryX=0;entryY=0;entryDx=0;entryDy=5;entryPerimeter=0;" edge="1" parent="1" source="dD-0ZCfgkTVZ2vpiZr_o-15" target="dD-0ZCfgkTVZ2vpiZr_o-6">
          <mxGeometry width="80" relative="1" as="geometry">
            <mxPoint x="50" y="240" as="sourcePoint" />
            <mxPoint x="130" y="240" as="targetPoint" />
          </mxGeometry>
        </mxCell>
        <mxCell id="_TqjOkzFFTkMrYYL6Ksg-3" value="携带参数返回app" style="html=1;verticalAlign=bottom;endArrow=open;dashed=1;endSize=8;curved=0;rounded=0;exitX=0;exitY=1;exitDx=0;exitDy=-5;exitPerimeter=0;" edge="1" parent="1" source="dD-0ZCfgkTVZ2vpiZr_o-6" target="dD-0ZCfgkTVZ2vpiZr_o-15">
          <mxGeometry relative="1" as="geometry">
            <mxPoint x="290" y="230" as="sourcePoint" />
            <mxPoint x="210" y="230" as="targetPoint" />
          </mxGeometry>
        </mxCell>
        <mxCell id="_TqjOkzFFTkMrYYL6Ksg-4" value="" style="endArrow=diamondThin;endFill=0;endSize=24;html=1;rounded=0;exitX=0;exitY=1;exitDx=0;exitDy=-5;exitPerimeter=0;" edge="1" parent="1" source="dD-0ZCfgkTVZ2vpiZr_o-15">
          <mxGeometry width="160" relative="1" as="geometry">
            <mxPoint x="480" y="270" as="sourcePoint" />
            <mxPoint x="40" y="385" as="targetPoint" />
          </mxGeometry>
        </mxCell>
        <mxCell id="_TqjOkzFFTkMrYYL6Ksg-5" value="完成绑定" style="edgeLabel;html=1;align=center;verticalAlign=middle;resizable=0;points=[];" vertex="1" connectable="0" parent="_TqjOkzFFTkMrYYL6Ksg-4">
          <mxGeometry x="-0.4118" relative="1" as="geometry">
            <mxPoint as="offset" />
          </mxGeometry>
        </mxCell>
      </root>
    </mxGraphModel>
  </diagram>
</mxfile>
